<svg width="18" height="18" viewBox="0 0 18 18" fill="none" xmlns="http://www.w3.org/2000/svg">
<path d="M0 9.00085C0.00127962 4.03017 4.02974 0 9.00043 0C13.9718 0 18 4.03038 18 9.00085C18 13.9722 13.9715 18.0017 9.00043 18.0026C4.02974 18.0017 0.00127962 13.9726 0 9.00085ZM1.56498 9.00085C1.57393 13.1074 4.89476 16.4293 9.00043 16.4372C13.1065 16.4293 16.428 13.1074 16.435 9.00085C16.428 4.89519 13.1065 1.57287 9.00043 1.5654C4.89498 1.57308 1.57393 4.89519 1.56498 9.00085Z" fill="white"/>
<path d="M8.99974 13.6944C7.8018 13.6948 6.59597 13.2346 5.68211 12.3198C4.76889 11.4066 4.30695 10.2034 4.30737 9.00585C4.30695 7.80663 4.7659 6.59866 5.68297 5.68438C6.59683 4.76838 7.80266 4.30836 8.99974 4.31006C10.199 4.30836 11.4042 4.76945 12.3187 5.68438L11.2178 6.78613C10.6029 6.17212 9.80484 5.86843 8.99974 5.86758C8.1955 5.86843 7.3983 6.17212 6.78323 6.78613C6.16965 7.39928 5.86638 8.19819 5.86552 9.00585C5.86638 9.80902 6.17093 10.6049 6.78451 11.2194C7.39744 11.8317 8.19486 12.1358 8.99974 12.1367C9.80484 12.1358 10.6031 11.8317 11.2163 11.2185L11.218 11.2194L12.3184 12.3198C11.4044 13.2346 10.2007 13.6944 9.00273 13.6944C9.00209 13.6944 9.00081 13.6944 8.99974 13.6944Z" fill="white"/>
</svg>
