<svg width="36" height="36" viewBox="0 0 36 36" fill="none" xmlns="http://www.w3.org/2000/svg">
<path d="M22.875 9.375H13.125C10.2 9.375 8.25 10.8375 8.25 14.25V21.075C8.25 24.4875 10.2 25.95 13.125 25.95H22.875C25.8 25.95 27.75 24.4875 27.75 21.075V14.25C27.75 10.8375 25.8 9.375 22.875 9.375ZM23.3332 15.3128L20.2815 17.7503C19.638 18.267 18.819 18.5205 18 18.5205C17.181 18.5205 16.3523 18.267 15.7185 17.7503L12.6668 15.3128C12.3548 15.0593 12.306 14.5912 12.5497 14.2792C12.8032 13.9672 13.2615 13.9087 13.5735 14.1622L16.6253 16.5998C17.3663 17.1945 18.624 17.1945 19.365 16.5998L22.4168 14.1622C22.7288 13.9087 23.1968 13.9575 23.4405 14.2792C23.694 14.5912 23.6452 15.0593 23.3332 15.3128Z" fill="white"/>
</svg>
