<svg width="67" height="37" viewBox="0 0 67 37" fill="none" xmlns="http://www.w3.org/2000/svg">
<g clip-path="url(#clip0_61_39051)">
<path d="M63.5732 27.4443C64.245 27.4444 64.833 27.6077 65.3369 27.9355C65.8409 28.2635 66.229 28.716 66.501 29.292L65.3369 29.9639C64.985 29.18 64.397 28.7882 63.5732 28.7881C63.1733 28.7881 62.8533 28.8842 62.6133 29.0762C62.3733 29.2602 62.2529 29.512 62.2529 29.832C62.2529 30.144 62.3733 30.3922 62.6133 30.5762C62.8613 30.7521 63.3056 30.9397 63.9453 31.1396C64.265 31.2435 64.4966 31.3239 64.6406 31.3799C64.7926 31.4279 65.0007 31.5082 65.2646 31.6201C65.5366 31.7321 65.741 31.8441 65.877 31.9561C66.0129 32.068 66.1567 32.2081 66.3086 32.376C66.4686 32.544 66.5805 32.7361 66.6445 32.9521C66.7085 33.168 66.7412 33.4118 66.7412 33.6836C66.7412 34.4436 66.465 35.0481 65.9131 35.4961C65.3691 35.9361 64.6526 36.1562 63.7646 36.1562C62.9568 36.1562 62.2691 35.9715 61.7012 35.6035C61.1412 35.2355 60.7494 34.7318 60.5254 34.0918L61.7129 33.3965C62.0489 34.3402 62.745 34.8115 63.8008 34.8115C64.3208 34.8115 64.7088 34.7117 64.9648 34.5117C65.2288 34.3037 65.3613 34.036 65.3613 33.708C65.3613 33.364 65.2204 33.1037 64.9404 32.9277C64.6604 32.7438 64.1646 32.544 63.4531 32.3281C63.0531 32.2081 62.7285 32.0962 62.4805 31.9922C62.2326 31.8882 61.9684 31.7435 61.6885 31.5596C61.4167 31.3676 61.2131 31.1314 61.0771 30.8516C60.9413 30.5717 60.8731 30.244 60.873 29.8682C60.873 29.1242 61.137 28.5355 61.665 28.1035C62.193 27.6637 62.8294 27.4443 63.5732 27.4443Z" fill="white"/>
<path fill-rule="evenodd" clip-rule="evenodd" d="M27 18L36 36H0L6.54688 22.9053C5.00686 21.8192 4 20.0277 4 18C4 14.6863 6.68629 12 10 12C10.6467 12 11.269 12.1037 11.8525 12.293L18 0L26 16V0H27V18ZM12.7764 12.6816C14.6919 13.6837 16 15.6884 16 18C16 21.3137 13.3137 24 10 24C9.07272 24 8.19504 23.7887 7.41113 23.4131L1.61816 35H26V18.2363L18 2.23633L12.7764 12.6816ZM27 35H34.3818L27 20.2363V35Z" fill="white"/>
<path d="M41.2197 34.6797H44.6396V36H39.8398V27.5996H41.2197V34.6797Z" fill="white"/>
<path fill-rule="evenodd" clip-rule="evenodd" d="M52.8584 36H51.3701L50.7822 34.3076H47.207L46.6182 36H45.1182L48.167 27.5996H49.8223L52.8584 36ZM47.6621 33.0117H50.3262L48.9941 29.2197L47.6621 33.0117Z" fill="white"/>
<path fill-rule="evenodd" clip-rule="evenodd" d="M57.0977 27.5996C57.7857 27.5996 58.3659 27.8245 58.8379 28.2725C59.3177 28.7124 59.5576 29.264 59.5576 29.9277C59.5576 30.6556 59.2738 31.2276 58.7061 31.6436C59.074 31.8355 59.3623 32.0996 59.5703 32.4355C59.7783 32.7714 59.8818 33.1598 59.8818 33.5996C59.8818 34.2876 59.6374 34.8604 59.1494 35.3164C58.6616 35.772 58.0659 35.9999 57.3623 36H53.7617V27.5996H57.0977ZM55.1416 34.7041H57.3623C57.6821 34.704 57.9501 34.5921 58.166 34.3682C58.3899 34.1362 58.5019 33.8562 58.502 33.5283C58.502 33.2004 58.3899 32.9242 58.166 32.7002C57.9501 32.4683 57.6821 32.3517 57.3623 32.3516H55.1416V34.7041ZM55.1416 31.1035H57.0977C57.4017 31.1035 57.6582 31 57.8662 30.792C58.0741 30.576 58.1777 30.3119 58.1777 30C58.1777 29.688 58.0742 29.4277 57.8662 29.2197C57.6582 29.0037 57.4017 28.8965 57.0977 28.8965H55.1416V31.1035Z" fill="white"/>
<path d="M42.4443 15.4443C43.1161 15.4444 43.7041 15.6077 44.208 15.9355C44.712 16.2635 45.1001 16.716 45.3721 17.292L44.208 17.9639C43.8561 17.18 43.2681 16.7882 42.4443 16.7881C42.0444 16.7881 41.7244 16.8842 41.4844 17.0762C41.2444 17.2602 41.124 17.512 41.124 17.832C41.124 18.144 41.2444 18.3922 41.4844 18.5762C41.7324 18.7521 42.1767 18.9397 42.8164 19.1396C43.1361 19.2435 43.3677 19.3239 43.5117 19.3799C43.6637 19.4279 43.8718 19.5082 44.1357 19.6201C44.4077 19.7321 44.612 19.8441 44.748 19.9561C44.884 20.068 45.0278 20.2081 45.1797 20.376C45.3397 20.544 45.4516 20.7361 45.5156 20.9521C45.5796 21.168 45.6123 21.4118 45.6123 21.6836C45.6123 22.4436 45.3361 23.0481 44.7842 23.4961C44.2402 23.9361 43.5237 24.1562 42.6357 24.1562C41.8279 24.1562 41.1402 23.9715 40.5723 23.6035C40.0123 23.2355 39.6205 22.7318 39.3965 22.0918L40.584 21.3965C40.92 22.3402 41.6161 22.8115 42.6719 22.8115C43.1919 22.8115 43.5799 22.7117 43.8359 22.5117C44.0999 22.3037 44.2324 22.036 44.2324 21.708C44.2324 21.364 44.0915 21.1037 43.8115 20.9277C43.5315 20.7438 43.0357 20.544 42.3242 20.3281C41.9242 20.2081 41.5996 20.0962 41.3516 19.9922C41.1037 19.8882 40.8395 19.7435 40.5596 19.5596C40.2878 19.3676 40.0842 19.1314 39.9482 18.8516C39.8123 18.5717 39.7442 18.244 39.7441 17.8682C39.7441 17.1242 40.0081 16.5355 40.5361 16.1035C41.0641 15.6637 41.7005 15.4443 42.4443 15.4443Z" fill="white"/>
<path d="M51.7822 16.9199H48.1221V19.1035H51.4824V20.4121H48.1221V22.6797H51.8428V24H46.7422V15.5996H51.7822V16.9199Z" fill="white"/>
<path d="M58.1455 16.9199H54.4854V19.1035H57.8457V20.4121H54.4854V22.6797H58.2061V24H53.1055V15.5996H58.1455V16.9199Z" fill="white"/>
<path fill-rule="evenodd" clip-rule="evenodd" d="M62.8291 15.5996C63.581 15.5997 64.2174 15.8636 64.7373 16.3916C65.2653 16.9116 65.5293 17.5479 65.5293 18.2998C65.5293 18.8358 65.3725 19.3284 65.0605 19.7764C64.7566 20.2161 64.3571 20.5364 63.8613 20.7363L65.7686 24H64.2568L62.4805 20.9404H60.8486V24H59.4688V15.5996H62.8291ZM60.8486 19.7041H62.8291C63.197 19.7041 63.5087 19.5678 63.7646 19.2959C64.0206 19.0239 64.1484 18.6918 64.1484 18.2998C64.1484 17.9079 64.0206 17.5757 63.7646 17.3037C63.5087 17.0319 63.1969 16.8965 62.8291 16.8965H60.8486V19.7041Z" fill="white"/>
</g>
<defs>
<clipPath id="clip0_61_39051">
<rect width="67" height="37" fill="white"/>
</clipPath>
</defs>
</svg>
