<svg width="36" height="36" viewBox="0 0 36 36" fill="none" xmlns="http://www.w3.org/2000/svg">
<path fill-rule="evenodd" clip-rule="evenodd" d="M8.14766 17.8099C13.395 15.5237 16.8941 14.0165 18.6449 13.2883C23.6436 11.2092 24.6824 10.848 25.3594 10.8361C25.5083 10.8334 25.8412 10.8703 26.0569 11.0453C26.239 11.1931 26.2891 11.3927 26.313 11.5328C26.337 11.6729 26.3669 11.992 26.3431 12.2414C26.0723 15.0876 24.9001 21.9947 24.3038 25.1825C24.0515 26.5314 23.5547 26.9836 23.0737 27.0279C22.0284 27.1241 21.2347 26.3371 20.2222 25.6735C18.638 24.635 17.743 23.9885 16.2052 22.9751C14.4281 21.804 15.5801 21.1603 16.5929 20.1084C16.858 19.8331 21.4636 15.644 21.5527 15.2639C21.5639 15.2164 21.5742 15.0393 21.469 14.9457C21.3637 14.8522 21.2084 14.8842 21.0963 14.9096C20.9374 14.9457 18.4066 16.6184 13.5038 19.928C12.7854 20.4212 12.1347 20.6616 11.5517 20.649C10.9091 20.6351 9.67277 20.2856 8.75372 19.9869C7.62647 19.6204 6.73055 19.4267 6.80857 18.8044C6.8492 18.4803 7.29557 18.1488 8.14766 17.8099Z" fill="white"/>
</svg>
